solid OpenSCAD_Model
  facet normal -1 0 0
    outer loop
      vertex 2 0 0
      vertex 2 110 17
      vertex 2 110 0
    endloop
  endfacet
  facet normal -1 -0 0
    outer loop
      vertex 2 110 17
      vertex 2 0 0
      vertex 2 0 17
    endloop
  endfacet
  facet normal 0 0 1
    outer loop
      vertex 22 110 17
      vertex 3 109 17
      vertex 22 109 17
    endloop
  endfacet
  facet normal 0 0 1
    outer loop
      vertex 3 109 17
      vertex 2 110 17
      vertex 3 1 17
    endloop
  endfacet
  facet normal -0 0 1
    outer loop
      vertex 2 110 17
      vertex 3 109 17
      vertex 22 110 17
    endloop
  endfacet
  facet normal -0 0 1
    outer loop
      vertex 3 1 17
      vertex 35 0 17
      vertex 35 1 17
    endloop
  endfacet
  facet normal 0 0 1
    outer loop
      vertex 3 1 17
      vertex 2 0 17
      vertex 35 0 17
    endloop
  endfacet
  facet normal 0 0 1
    outer loop
      vertex 2 0 17
      vertex 3 1 17
      vertex 2 110 17
    endloop
  endfacet
  facet normal 0 0 1
    outer loop
      vertex 49 110 17
      vertex 48 109 17
      vertex 49 0 17
    endloop
  endfacet
  facet normal -0 0 1
    outer loop
      vertex 29 110 17
      vertex 48 109 17
      vertex 49 110 17
    endloop
  endfacet
  facet normal 0 0 1
    outer loop
      vertex 48 109 17
      vertex 29 110 17
      vertex 29 109 17
    endloop
  endfacet
  facet normal -0 0 1
    outer loop
      vertex 48 1 17
      vertex 49 0 17
      vertex 48 109 17
    endloop
  endfacet
  facet normal 0 0 1
    outer loop
      vertex 41 0 17
      vertex 48 1 17
      vertex 41 1 17
    endloop
  endfacet
  facet normal 0 0 1
    outer loop
      vertex 48 1 17
      vertex 41 0 17
      vertex 49 0 17
    endloop
  endfacet
  facet normal 1 -0 0
    outer loop
      vertex 49 0 17
      vertex 49 110 0
      vertex 49 110 17
    endloop
  endfacet
  facet normal 1 0 0
    outer loop
      vertex 49 110 0
      vertex 49 0 17
      vertex 49 0 0
    endloop
  endfacet
  facet normal 0 0 -1
    outer loop
      vertex 2 0 0
      vertex 49 110 0
      vertex 49 0 0
    endloop
  endfacet
  facet normal -0 0 -1
    outer loop
      vertex 49 110 0
      vertex 2 0 0
      vertex 2 110 0
    endloop
  endfacet
  facet normal 0 -1 0
    outer loop
      vertex 2 0 17
      vertex 35 0 13
      vertex 35 0 17
    endloop
  endfacet
  facet normal 0 -1 0
    outer loop
      vertex 49 0 0
      vertex 35 0 13
      vertex 2 0 0
    endloop
  endfacet
  facet normal 0 -1 0
    outer loop
      vertex 2 0 0
      vertex 35 0 13
      vertex 2 0 17
    endloop
  endfacet
  facet normal 0 -1 0
    outer loop
      vertex 41 0 13
      vertex 49 0 17
      vertex 41 0 17
    endloop
  endfacet
  facet normal 0 -1 0
    outer loop
      vertex 41 0 13
      vertex 49 0 0
      vertex 49 0 17
    endloop
  endfacet
  facet normal 0 -1 0
    outer loop
      vertex 35 0 13
      vertex 49 0 0
      vertex 41 0 13
    endloop
  endfacet
  facet normal 0 1 0
    outer loop
      vertex 49 110 17
      vertex 28.9235 110 16.2723
      vertex 29 110 17
    endloop
  endfacet
  facet normal 0 1 0
    outer loop
      vertex 49 110 17
      vertex 28.6974 110 15.5764
      vertex 28.9235 110 16.2723
    endloop
  endfacet
  facet normal 0 1 0
    outer loop
      vertex 49 110 17
      vertex 28.3316 110 14.9428
      vertex 28.6974 110 15.5764
    endloop
  endfacet
  facet normal 0 1 -0
    outer loop
      vertex 49 110 0
      vertex 28.3316 110 14.9428
      vertex 49 110 17
    endloop
  endfacet
  facet normal 0 1 0
    outer loop
      vertex 28.3316 110 14.9428
      vertex 49 110 0
      vertex 27.842 110 14.399
    endloop
  endfacet
  facet normal 0 1 0
    outer loop
      vertex 27.842 110 14.399
      vertex 49 110 0
      vertex 27.25 110 13.9689
    endloop
  endfacet
  facet normal 0 1 0
    outer loop
      vertex 27.25 110 13.9689
      vertex 49 110 0
      vertex 26.5816 110 13.6713
    endloop
  endfacet
  facet normal 0 1 0
    outer loop
      vertex 25.8658 110 13.5192
      vertex 49 110 0
      vertex 25.1341 110 13.5192
    endloop
  endfacet
  facet normal 0 1 0
    outer loop
      vertex 26.5816 110 13.6713
      vertex 49 110 0
      vertex 25.8658 110 13.5192
    endloop
  endfacet
  facet normal 0 1 0
    outer loop
      vertex 22.0765 110 16.2723
      vertex 2 110 17
      vertex 22 110 17
    endloop
  endfacet
  facet normal 0 1 0
    outer loop
      vertex 22.3026 110 15.5764
      vertex 2 110 17
      vertex 22.0765 110 16.2723
    endloop
  endfacet
  facet normal 0 1 0
    outer loop
      vertex 22.6684 110 14.9428
      vertex 2 110 17
      vertex 22.3026 110 15.5764
    endloop
  endfacet
  facet normal 0 1 0
    outer loop
      vertex 2 110 0
      vertex 22.6684 110 14.9428
      vertex 23.158 110 14.399
    endloop
  endfacet
  facet normal 0 1 0
    outer loop
      vertex 2 110 0
      vertex 23.158 110 14.399
      vertex 23.75 110 13.9689
    endloop
  endfacet
  facet normal 0 1 0
    outer loop
      vertex 2 110 0
      vertex 23.75 110 13.9689
      vertex 24.4184 110 13.6713
    endloop
  endfacet
  facet normal 0 1 0
    outer loop
      vertex 2 110 0
      vertex 24.4184 110 13.6713
      vertex 25.1341 110 13.5192
    endloop
  endfacet
  facet normal 0 1 0
    outer loop
      vertex 2 110 0
      vertex 25.1341 110 13.5192
      vertex 49 110 0
    endloop
  endfacet
  facet normal 0 1 0
    outer loop
      vertex 22.6684 110 14.9428
      vertex 2 110 0
      vertex 2 110 17
    endloop
  endfacet
  facet normal 1 -0 0
    outer loop
      vertex 4 2 15
      vertex 4 108 2
      vertex 4 108 15
    endloop
  endfacet
  facet normal 1 0 0
    outer loop
      vertex 4 108 2
      vertex 4 2 15
      vertex 4 2 2
    endloop
  endfacet
  facet normal -1 0 0
    outer loop
      vertex 47 2 2
      vertex 47 108 15
      vertex 47 108 2
    endloop
  endfacet
  facet normal -1 -0 0
    outer loop
      vertex 47 108 15
      vertex 47 2 2
      vertex 47 2 15
    endloop
  endfacet
  facet normal -0 0 1
    outer loop
      vertex 4 108 2
      vertex 47 2 2
      vertex 47 108 2
    endloop
  endfacet
  facet normal 0 0 1
    outer loop
      vertex 47 2 2
      vertex 4 108 2
      vertex 4 2 2
    endloop
  endfacet
  facet normal 0 1 0
    outer loop
      vertex 47 2 15
      vertex 41 2 13
      vertex 41 2 15
    endloop
  endfacet
  facet normal 0 1 0
    outer loop
      vertex 41 2 13
      vertex 47 2 2
      vertex 35 2 13
    endloop
  endfacet
  facet normal 0 1 -0
    outer loop
      vertex 47 2 2
      vertex 41 2 13
      vertex 47 2 15
    endloop
  endfacet
  facet normal 0 1 -0
    outer loop
      vertex 35 2 13
      vertex 4 2 15
      vertex 35 2 15
    endloop
  endfacet
  facet normal 0 1 0
    outer loop
      vertex 4 2 2
      vertex 35 2 13
      vertex 47 2 2
    endloop
  endfacet
  facet normal 0 1 0
    outer loop
      vertex 35 2 13
      vertex 4 2 2
      vertex 4 2 15
    endloop
  endfacet
  facet normal 0 -1 0
    outer loop
      vertex 4 108 15
      vertex 22.6684 108 14.9428
      vertex 22.6354 108 15
    endloop
  endfacet
  facet normal 0 -1 0
    outer loop
      vertex 4 108 2
      vertex 22.6684 108 14.9428
      vertex 4 108 15
    endloop
  endfacet
  facet normal 0 -1 -0
    outer loop
      vertex 22.6684 108 14.9428
      vertex 4 108 2
      vertex 23.158 108 14.399
    endloop
  endfacet
  facet normal 0 -1 -0
    outer loop
      vertex 23.158 108 14.399
      vertex 4 108 2
      vertex 23.75 108 13.9689
    endloop
  endfacet
  facet normal 0 -1 -0
    outer loop
      vertex 23.75 108 13.9689
      vertex 4 108 2
      vertex 24.4184 108 13.6713
    endloop
  endfacet
  facet normal 0 -1 -0
    outer loop
      vertex 25.1341 108 13.5192
      vertex 4 108 2
      vertex 25.8658 108 13.5192
    endloop
  endfacet
  facet normal 0 -1 -0
    outer loop
      vertex 24.4184 108 13.6713
      vertex 4 108 2
      vertex 25.1341 108 13.5192
    endloop
  endfacet
  facet normal 0 -1 0
    outer loop
      vertex 28.3316 108 14.9428
      vertex 47 108 15
      vertex 28.3646 108 15
    endloop
  endfacet
  facet normal 0 -1 0
    outer loop
      vertex 47 108 2
      vertex 28.3316 108 14.9428
      vertex 27.842 108 14.399
    endloop
  endfacet
  facet normal 0 -1 0
    outer loop
      vertex 47 108 2
      vertex 27.842 108 14.399
      vertex 27.25 108 13.9689
    endloop
  endfacet
  facet normal 0 -1 0
    outer loop
      vertex 47 108 2
      vertex 27.25 108 13.9689
      vertex 26.5816 108 13.6713
    endloop
  endfacet
  facet normal 0 -1 0
    outer loop
      vertex 47 108 2
      vertex 26.5816 108 13.6713
      vertex 25.8658 108 13.5192
    endloop
  endfacet
  facet normal 0 -1 0
    outer loop
      vertex 47 108 2
      vertex 25.8658 108 13.5192
      vertex 4 108 2
    endloop
  endfacet
  facet normal 0 -1 0
    outer loop
      vertex 28.3316 108 14.9428
      vertex 47 108 2
      vertex 47 108 15
    endloop
  endfacet
  facet normal 1 -0 0
    outer loop
      vertex 3 1 17
      vertex 3 109 15
      vertex 3 109 17
    endloop
  endfacet
  facet normal 1 0 0
    outer loop
      vertex 3 109 15
      vertex 3 1 17
      vertex 3 1 15
    endloop
  endfacet
  facet normal -1 0 0
    outer loop
      vertex 48 1 15
      vertex 48 109 17
      vertex 48 109 15
    endloop
  endfacet
  facet normal -1 -0 0
    outer loop
      vertex 48 109 17
      vertex 48 1 15
      vertex 48 1 17
    endloop
  endfacet
  facet normal 0 0 1
    outer loop
      vertex 22.6354 109 15
      vertex 4 108 15
      vertex 22.6354 108 15
    endloop
  endfacet
  facet normal 0 0 1
    outer loop
      vertex 4 108 15
      vertex 3 109 15
      vertex 4 2 15
    endloop
  endfacet
  facet normal -0 0 1
    outer loop
      vertex 3 109 15
      vertex 4 108 15
      vertex 22.6354 109 15
    endloop
  endfacet
  facet normal -0 0 1
    outer loop
      vertex 4 2 15
      vertex 35 1 15
      vertex 35 2 15
    endloop
  endfacet
  facet normal 0 0 1
    outer loop
      vertex 4 2 15
      vertex 3 1 15
      vertex 35 1 15
    endloop
  endfacet
  facet normal 0 0 1
    outer loop
      vertex 3 1 15
      vertex 4 2 15
      vertex 3 109 15
    endloop
  endfacet
  facet normal 0 0 1
    outer loop
      vertex 48 109 15
      vertex 47 108 15
      vertex 48 1 15
    endloop
  endfacet
  facet normal -0 0 1
    outer loop
      vertex 28.3646 109 15
      vertex 47 108 15
      vertex 48 109 15
    endloop
  endfacet
  facet normal 0 0 1
    outer loop
      vertex 47 108 15
      vertex 28.3646 109 15
      vertex 28.3646 108 15
    endloop
  endfacet
  facet normal -0 0 1
    outer loop
      vertex 47 2 15
      vertex 48 1 15
      vertex 47 108 15
    endloop
  endfacet
  facet normal 0 0 1
    outer loop
      vertex 41 1 15
      vertex 47 2 15
      vertex 41 2 15
    endloop
  endfacet
  facet normal 0 0 1
    outer loop
      vertex 47 2 15
      vertex 41 1 15
      vertex 48 1 15
    endloop
  endfacet
  facet normal 0 1 -0
    outer loop
      vertex 35 1 15
      vertex 3 1 17
      vertex 35 1 17
    endloop
  endfacet
  facet normal 0 1 0
    outer loop
      vertex 3 1 17
      vertex 35 1 15
      vertex 3 1 15
    endloop
  endfacet
  facet normal 0 1 -0
    outer loop
      vertex 48 1 15
      vertex 41 1 17
      vertex 48 1 17
    endloop
  endfacet
  facet normal 0 1 0
    outer loop
      vertex 41 1 17
      vertex 48 1 15
      vertex 41 1 15
    endloop
  endfacet
  facet normal 0 -1 0
    outer loop
      vertex 48 109 15
      vertex 29 109 17
      vertex 28.9235 109 16.2723
    endloop
  endfacet
  facet normal 0 -1 0
    outer loop
      vertex 48 109 15
      vertex 28.9235 109 16.2723
      vertex 28.6974 109 15.5764
    endloop
  endfacet
  facet normal 0 -1 0
    outer loop
      vertex 48 109 15
      vertex 28.6974 109 15.5764
      vertex 28.3646 109 15
    endloop
  endfacet
  facet normal 0 -1 0
    outer loop
      vertex 29 109 17
      vertex 48 109 15
      vertex 48 109 17
    endloop
  endfacet
  facet normal 0 -1 0
    outer loop
      vertex 3 109 15
      vertex 22 109 17
      vertex 3 109 17
    endloop
  endfacet
  facet normal 0 -1 -0
    outer loop
      vertex 22 109 17
      vertex 3 109 15
      vertex 22.0765 109 16.2723
    endloop
  endfacet
  facet normal 0 -1 -0
    outer loop
      vertex 22.0765 109 16.2723
      vertex 3 109 15
      vertex 22.3026 109 15.5764
    endloop
  endfacet
  facet normal 0 -1 -0
    outer loop
      vertex 22.3026 109 15.5764
      vertex 3 109 15
      vertex 22.6354 109 15
    endloop
  endfacet
  facet normal -0.994522 0 0.10453
    outer loop
      vertex 28.9235 109 16.2723
      vertex 29 110 17
      vertex 28.9235 110 16.2723
    endloop
  endfacet
  facet normal -0.994522 0 0.10453
    outer loop
      vertex 29 110 17
      vertex 28.9235 109 16.2723
      vertex 29 109 17
    endloop
  endfacet
  facet normal 0.207912 0 0.978147
    outer loop
      vertex 24.4184 110 13.6713
      vertex 25.1341 108 13.5192
      vertex 25.1341 110 13.5192
    endloop
  endfacet
  facet normal 0.207912 0 0.978147
    outer loop
      vertex 25.1341 108 13.5192
      vertex 24.4184 110 13.6713
      vertex 24.4184 108 13.6713
    endloop
  endfacet
  facet normal 0.994522 -0 0.104528
    outer loop
      vertex 22 109 17
      vertex 22.0765 110 16.2723
      vertex 22 110 17
    endloop
  endfacet
  facet normal 0.994522 0 0.104528
    outer loop
      vertex 22.0765 110 16.2723
      vertex 22 109 17
      vertex 22.0765 109 16.2723
    endloop
  endfacet
  facet normal -0.866025 -1.33952e-06 0.5
    outer loop
      vertex 28.3316 110 14.9428
      vertex 28.3646 109 15
      vertex 28.6974 110 15.5764
    endloop
  endfacet
  facet normal -0.866015 0 0.500018
    outer loop
      vertex 28.3316 108 14.9428
      vertex 28.3646 109 15
      vertex 28.3316 110 14.9428
    endloop
  endfacet
  facet normal -0.866015 0 0.500018
    outer loop
      vertex 28.3646 109 15
      vertex 28.3316 108 14.9428
      vertex 28.3646 108 15
    endloop
  endfacet
  facet normal -0.866026 0 0.499999
    outer loop
      vertex 28.6974 110 15.5764
      vertex 28.3646 109 15
      vertex 28.6974 109 15.5764
    endloop
  endfacet
  facet normal -0.406735 0 0.913546
    outer loop
      vertex 26.5816 110 13.6713
      vertex 27.25 108 13.9689
      vertex 27.25 110 13.9689
    endloop
  endfacet
  facet normal -0.406735 0 0.913546
    outer loop
      vertex 27.25 108 13.9689
      vertex 26.5816 110 13.6713
      vertex 26.5816 108 13.6713
    endloop
  endfacet
  facet normal -0 0 1
    outer loop
      vertex 25.1341 110 13.5192
      vertex 25.8658 108 13.5192
      vertex 25.8658 110 13.5192
    endloop
  endfacet
  facet normal 0 0 1
    outer loop
      vertex 25.8658 108 13.5192
      vertex 25.1341 110 13.5192
      vertex 25.1341 108 13.5192
    endloop
  endfacet
  facet normal 0.587786 0 0.809017
    outer loop
      vertex 23.158 110 14.399
      vertex 23.75 108 13.9689
      vertex 23.75 110 13.9689
    endloop
  endfacet
  facet normal 0.587786 0 0.809017
    outer loop
      vertex 23.75 108 13.9689
      vertex 23.158 110 14.399
      vertex 23.158 108 14.399
    endloop
  endfacet
  facet normal 0.951057 -0 0.309016
    outer loop
      vertex 22.0765 109 16.2723
      vertex 22.3026 110 15.5764
      vertex 22.0765 110 16.2723
    endloop
  endfacet
  facet normal 0.951057 0 0.309016
    outer loop
      vertex 22.3026 110 15.5764
      vertex 22.0765 109 16.2723
      vertex 22.3026 109 15.5764
    endloop
  endfacet
  facet normal 0.743144 -0 0.669131
    outer loop
      vertex 22.6684 108 14.9428
      vertex 23.158 110 14.399
      vertex 22.6684 110 14.9428
    endloop
  endfacet
  facet normal 0.743144 0 0.669131
    outer loop
      vertex 23.158 110 14.399
      vertex 22.6684 108 14.9428
      vertex 23.158 108 14.399
    endloop
  endfacet
  facet normal -0.207912 0 0.978147
    outer loop
      vertex 25.8658 110 13.5192
      vertex 26.5816 108 13.6713
      vertex 26.5816 110 13.6713
    endloop
  endfacet
  facet normal -0.207912 0 0.978147
    outer loop
      vertex 26.5816 108 13.6713
      vertex 25.8658 110 13.5192
      vertex 25.8658 108 13.5192
    endloop
  endfacet
  facet normal -0.587786 0 0.809017
    outer loop
      vertex 27.25 110 13.9689
      vertex 27.842 108 14.399
      vertex 27.842 110 14.399
    endloop
  endfacet
  facet normal -0.587786 0 0.809017
    outer loop
      vertex 27.842 108 14.399
      vertex 27.25 110 13.9689
      vertex 27.25 108 13.9689
    endloop
  endfacet
  facet normal -0.743146 0 0.66913
    outer loop
      vertex 27.842 108 14.399
      vertex 28.3316 110 14.9428
      vertex 27.842 110 14.399
    endloop
  endfacet
  facet normal -0.743146 0 0.66913
    outer loop
      vertex 28.3316 110 14.9428
      vertex 27.842 108 14.399
      vertex 28.3316 108 14.9428
    endloop
  endfacet
  facet normal -0.951057 0 0.309016
    outer loop
      vertex 28.6974 109 15.5764
      vertex 28.9235 110 16.2723
      vertex 28.6974 110 15.5764
    endloop
  endfacet
  facet normal -0.951057 0 0.309016
    outer loop
      vertex 28.9235 110 16.2723
      vertex 28.6974 109 15.5764
      vertex 28.9235 109 16.2723
    endloop
  endfacet
  facet normal 0.406736 0 0.913546
    outer loop
      vertex 23.75 110 13.9689
      vertex 24.4184 108 13.6713
      vertex 24.4184 110 13.6713
    endloop
  endfacet
  facet normal 0.406736 0 0.913546
    outer loop
      vertex 24.4184 108 13.6713
      vertex 23.75 110 13.9689
      vertex 23.75 108 13.9689
    endloop
  endfacet
  facet normal 0.866025 0 0.500001
    outer loop
      vertex 22.6354 109 15
      vertex 22.3026 110 15.5764
      vertex 22.3026 109 15.5764
    endloop
  endfacet
  facet normal 0.866025 3.12293e-07 0.5
    outer loop
      vertex 22.3026 110 15.5764
      vertex 22.6354 109 15
      vertex 22.6684 110 14.9428
    endloop
  endfacet
  facet normal 0.866028 0 0.499996
    outer loop
      vertex 22.6684 108 14.9428
      vertex 22.6354 109 15
      vertex 22.6354 108 15
    endloop
  endfacet
  facet normal 0.866028 0 0.499996
    outer loop
      vertex 22.6354 109 15
      vertex 22.6684 108 14.9428
      vertex 22.6684 110 14.9428
    endloop
  endfacet
  facet normal 1 0 0
    outer loop
      vertex 35 1 17
      vertex 35 0 17
      vertex 35 1 15
    endloop
  endfacet
  facet normal 1 -0 0
    outer loop
      vertex 35 1 15
      vertex 35 2 13
      vertex 35 2 15
    endloop
  endfacet
  facet normal 1 0 0
    outer loop
      vertex 35 0 13
      vertex 35 1 15
      vertex 35 0 17
    endloop
  endfacet
  facet normal 1 0 0
    outer loop
      vertex 35 1 15
      vertex 35 0 13
      vertex 35 2 13
    endloop
  endfacet
  facet normal -1 0 0
    outer loop
      vertex 41 2 13
      vertex 41 1 15
      vertex 41 2 15
    endloop
  endfacet
  facet normal -1 0 0
    outer loop
      vertex 41 0 13
      vertex 41 1 15
      vertex 41 2 13
    endloop
  endfacet
  facet normal -1 0 0
    outer loop
      vertex 41 0 17
      vertex 41 1 15
      vertex 41 0 13
    endloop
  endfacet
  facet normal -1 0 0
    outer loop
      vertex 41 1 15
      vertex 41 0 17
      vertex 41 1 17
    endloop
  endfacet
  facet normal -0 0 1
    outer loop
      vertex 35 2 13
      vertex 41 0 13
      vertex 41 2 13
    endloop
  endfacet
  facet normal 0 0 1
    outer loop
      vertex 41 0 13
      vertex 35 2 13
      vertex 35 0 13
    endloop
  endfacet
  facet normal -1 0 0
    outer loop
      vertex -49 0 0
      vertex -49 110 17
      vertex -49 110 0
    endloop
  endfacet
  facet normal -1 -0 0
    outer loop
      vertex -49 110 17
      vertex -49 0 0
      vertex -49 0 17
    endloop
  endfacet
  facet normal 0 0 1
    outer loop
      vertex -29 110 17
      vertex -47 108 17
      vertex -29 108 17
    endloop
  endfacet
  facet normal 0 0 1
    outer loop
      vertex -47 108 17
      vertex -49 110 17
      vertex -47 2 17
    endloop
  endfacet
  facet normal -0 0 1
    outer loop
      vertex -49 110 17
      vertex -47 108 17
      vertex -29 110 17
    endloop
  endfacet
  facet normal -0 0 1
    outer loop
      vertex -47 2 17
      vertex -16 0 17
      vertex -16 2 17
    endloop
  endfacet
  facet normal 0 0 1
    outer loop
      vertex -47 2 17
      vertex -49 0 17
      vertex -16 0 17
    endloop
  endfacet
  facet normal 0 0 1
    outer loop
      vertex -49 0 17
      vertex -47 2 17
      vertex -49 110 17
    endloop
  endfacet
  facet normal 0 0 1
    outer loop
      vertex -2 110 17
      vertex -4 108 17
      vertex -2 0 17
    endloop
  endfacet
  facet normal -0 0 1
    outer loop
      vertex -22 110 17
      vertex -4 108 17
      vertex -2 110 17
    endloop
  endfacet
  facet normal 0 0 1
    outer loop
      vertex -4 108 17
      vertex -22 110 17
      vertex -22 108 17
    endloop
  endfacet
  facet normal -0 0 1
    outer loop
      vertex -4 2 17
      vertex -2 0 17
      vertex -4 108 17
    endloop
  endfacet
  facet normal 0 0 1
    outer loop
      vertex -10 0 17
      vertex -4 2 17
      vertex -10 2 17
    endloop
  endfacet
  facet normal 0 0 1
    outer loop
      vertex -4 2 17
      vertex -10 0 17
      vertex -2 0 17
    endloop
  endfacet
  facet normal 1 -0 0
    outer loop
      vertex -2 0 17
      vertex -2 110 0
      vertex -2 110 17
    endloop
  endfacet
  facet normal 1 0 0
    outer loop
      vertex -2 110 0
      vertex -2 0 17
      vertex -2 0 0
    endloop
  endfacet
  facet normal 0 0 -1
    outer loop
      vertex -49 0 0
      vertex -2 110 0
      vertex -2 0 0
    endloop
  endfacet
  facet normal -0 0 -1
    outer loop
      vertex -2 110 0
      vertex -49 0 0
      vertex -49 110 0
    endloop
  endfacet
  facet normal 0 -1 0
    outer loop
      vertex -49 0 17
      vertex -16 0 13
      vertex -16 0 17
    endloop
  endfacet
  facet normal 0 -1 0
    outer loop
      vertex -2 0 0
      vertex -16 0 13
      vertex -49 0 0
    endloop
  endfacet
  facet normal 0 -1 0
    outer loop
      vertex -49 0 0
      vertex -16 0 13
      vertex -49 0 17
    endloop
  endfacet
  facet normal 0 -1 0
    outer loop
      vertex -10 0 13
      vertex -2 0 17
      vertex -10 0 17
    endloop
  endfacet
  facet normal 0 -1 0
    outer loop
      vertex -10 0 13
      vertex -2 0 0
      vertex -2 0 17
    endloop
  endfacet
  facet normal 0 -1 0
    outer loop
      vertex -16 0 13
      vertex -2 0 0
      vertex -10 0 13
    endloop
  endfacet
  facet normal 0 1 0
    outer loop
      vertex -2 110 17
      vertex -22.0765 110 16.2723
      vertex -22 110 17
    endloop
  endfacet
  facet normal 0 1 0
    outer loop
      vertex -2 110 17
      vertex -22.3026 110 15.5764
      vertex -22.0765 110 16.2723
    endloop
  endfacet
  facet normal 0 1 0
    outer loop
      vertex -2 110 17
      vertex -22.6684 110 14.9428
      vertex -22.3026 110 15.5764
    endloop
  endfacet
  facet normal 0 1 -0
    outer loop
      vertex -2 110 0
      vertex -22.6684 110 14.9428
      vertex -2 110 17
    endloop
  endfacet
  facet normal 0 1 0
    outer loop
      vertex -22.6684 110 14.9428
      vertex -2 110 0
      vertex -23.158 110 14.399
    endloop
  endfacet
  facet normal 0 1 0
    outer loop
      vertex -23.158 110 14.399
      vertex -2 110 0
      vertex -23.75 110 13.9689
    endloop
  endfacet
  facet normal 0 1 0
    outer loop
      vertex -23.75 110 13.9689
      vertex -2 110 0
      vertex -24.4184 110 13.6713
    endloop
  endfacet
  facet normal 0 1 0
    outer loop
      vertex -25.1342 110 13.5192
      vertex -2 110 0
      vertex -25.8659 110 13.5192
    endloop
  endfacet
  facet normal 0 1 0
    outer loop
      vertex -24.4184 110 13.6713
      vertex -2 110 0
      vertex -25.1342 110 13.5192
    endloop
  endfacet
  facet normal 0 1 0
    outer loop
      vertex -28.9235 110 16.2723
      vertex -49 110 17
      vertex -29 110 17
    endloop
  endfacet
  facet normal 0 1 0
    outer loop
      vertex -28.6974 110 15.5764
      vertex -49 110 17
      vertex -28.9235 110 16.2723
    endloop
  endfacet
  facet normal 0 1 0
    outer loop
      vertex -28.3316 110 14.9428
      vertex -49 110 17
      vertex -28.6974 110 15.5764
    endloop
  endfacet
  facet normal 0 1 0
    outer loop
      vertex -49 110 0
      vertex -28.3316 110 14.9428
      vertex -27.842 110 14.399
    endloop
  endfacet
  facet normal 0 1 0
    outer loop
      vertex -49 110 0
      vertex -27.842 110 14.399
      vertex -27.25 110 13.9689
    endloop
  endfacet
  facet normal 0 1 0
    outer loop
      vertex -49 110 0
      vertex -27.25 110 13.9689
      vertex -26.5816 110 13.6713
    endloop
  endfacet
  facet normal 0 1 0
    outer loop
      vertex -49 110 0
      vertex -26.5816 110 13.6713
      vertex -25.8659 110 13.5192
    endloop
  endfacet
  facet normal 0 1 0
    outer loop
      vertex -49 110 0
      vertex -25.8659 110 13.5192
      vertex -2 110 0
    endloop
  endfacet
  facet normal 0 1 0
    outer loop
      vertex -28.3316 110 14.9428
      vertex -49 110 0
      vertex -49 110 17
    endloop
  endfacet
  facet normal 1 -0 0
    outer loop
      vertex -47 2 17
      vertex -47 108 2
      vertex -47 108 17
    endloop
  endfacet
  facet normal 1 0 0
    outer loop
      vertex -47 108 2
      vertex -47 2 17
      vertex -47 2 2
    endloop
  endfacet
  facet normal -1 0 0
    outer loop
      vertex -4 2 2
      vertex -4 108 17
      vertex -4 108 2
    endloop
  endfacet
  facet normal -1 -0 0
    outer loop
      vertex -4 108 17
      vertex -4 2 2
      vertex -4 2 17
    endloop
  endfacet
  facet normal 0 -1 0
    outer loop
      vertex -47 108 17
      vertex -28.9235 108 16.2723
      vertex -29 108 17
    endloop
  endfacet
  facet normal 0 -1 0
    outer loop
      vertex -47 108 17
      vertex -28.6974 108 15.5764
      vertex -28.9235 108 16.2723
    endloop
  endfacet
  facet normal 0 -1 0
    outer loop
      vertex -47 108 17
      vertex -28.3316 108 14.9428
      vertex -28.6974 108 15.5764
    endloop
  endfacet
  facet normal 0 -1 0
    outer loop
      vertex -47 108 2
      vertex -28.3316 108 14.9428
      vertex -47 108 17
    endloop
  endfacet
  facet normal 0 -1 -0
    outer loop
      vertex -28.3316 108 14.9428
      vertex -47 108 2
      vertex -27.842 108 14.399
    endloop
  endfacet
  facet normal 0 -1 -0
    outer loop
      vertex -27.842 108 14.399
      vertex -47 108 2
      vertex -27.25 108 13.9689
    endloop
  endfacet
  facet normal 0 -1 -0
    outer loop
      vertex -27.25 108 13.9689
      vertex -47 108 2
      vertex -26.5816 108 13.6713
    endloop
  endfacet
  facet normal 0 -1 -0
    outer loop
      vertex -25.8659 108 13.5192
      vertex -47 108 2
      vertex -25.1342 108 13.5192
    endloop
  endfacet
  facet normal 0 -1 -0
    outer loop
      vertex -26.5816 108 13.6713
      vertex -47 108 2
      vertex -25.8659 108 13.5192
    endloop
  endfacet
  facet normal 0 -1 0
    outer loop
      vertex -22.0765 108 16.2723
      vertex -4 108 17
      vertex -22 108 17
    endloop
  endfacet
  facet normal 0 -1 0
    outer loop
      vertex -22.3026 108 15.5764
      vertex -4 108 17
      vertex -22.0765 108 16.2723
    endloop
  endfacet
  facet normal 0 -1 0
    outer loop
      vertex -22.6684 108 14.9428
      vertex -4 108 17
      vertex -22.3026 108 15.5764
    endloop
  endfacet
  facet normal 0 -1 0
    outer loop
      vertex -4 108 2
      vertex -22.6684 108 14.9428
      vertex -23.158 108 14.399
    endloop
  endfacet
  facet normal 0 -1 0
    outer loop
      vertex -4 108 2
      vertex -23.158 108 14.399
      vertex -23.75 108 13.9689
    endloop
  endfacet
  facet normal 0 -1 0
    outer loop
      vertex -4 108 2
      vertex -23.75 108 13.9689
      vertex -24.4184 108 13.6713
    endloop
  endfacet
  facet normal 0 -1 0
    outer loop
      vertex -4 108 2
      vertex -24.4184 108 13.6713
      vertex -25.1342 108 13.5192
    endloop
  endfacet
  facet normal 0 -1 0
    outer loop
      vertex -4 108 2
      vertex -25.1342 108 13.5192
      vertex -47 108 2
    endloop
  endfacet
  facet normal 0 -1 0
    outer loop
      vertex -22.6684 108 14.9428
      vertex -4 108 2
      vertex -4 108 17
    endloop
  endfacet
  facet normal -0 0 1
    outer loop
      vertex -47 108 2
      vertex -4 2 2
      vertex -4 108 2
    endloop
  endfacet
  facet normal 0 0 1
    outer loop
      vertex -4 2 2
      vertex -47 108 2
      vertex -47 2 2
    endloop
  endfacet
  facet normal 0 1 0
    outer loop
      vertex -4 2 17
      vertex -10 2 13
      vertex -10 2 17
    endloop
  endfacet
  facet normal 0 1 0
    outer loop
      vertex -10 2 13
      vertex -4 2 2
      vertex -16 2 13
    endloop
  endfacet
  facet normal 0 1 -0
    outer loop
      vertex -4 2 2
      vertex -10 2 13
      vertex -4 2 17
    endloop
  endfacet
  facet normal 0 1 -0
    outer loop
      vertex -16 2 13
      vertex -47 2 17
      vertex -16 2 17
    endloop
  endfacet
  facet normal 0 1 0
    outer loop
      vertex -47 2 2
      vertex -16 2 13
      vertex -4 2 2
    endloop
  endfacet
  facet normal 0 1 0
    outer loop
      vertex -16 2 13
      vertex -47 2 2
      vertex -47 2 17
    endloop
  endfacet
  facet normal -0.207912 0 0.978147
    outer loop
      vertex -25.1342 110 13.5192
      vertex -24.4184 108 13.6713
      vertex -24.4184 110 13.6713
    endloop
  endfacet
  facet normal -0.207912 0 0.978147
    outer loop
      vertex -24.4184 108 13.6713
      vertex -25.1342 110 13.5192
      vertex -25.1342 108 13.5192
    endloop
  endfacet
  facet normal -0.866025 0 0.5
    outer loop
      vertex -22.6684 108 14.9428
      vertex -22.3026 110 15.5764
      vertex -22.6684 110 14.9428
    endloop
  endfacet
  facet normal -0.866025 0 0.5
    outer loop
      vertex -22.3026 110 15.5764
      vertex -22.6684 108 14.9428
      vertex -22.3026 108 15.5764
    endloop
  endfacet
  facet normal 0.587786 0 0.809017
    outer loop
      vertex -27.842 110 14.399
      vertex -27.25 108 13.9689
      vertex -27.25 110 13.9689
    endloop
  endfacet
  facet normal 0.587786 0 0.809017
    outer loop
      vertex -27.25 108 13.9689
      vertex -27.842 110 14.399
      vertex -27.842 108 14.399
    endloop
  endfacet
  facet normal 0.743144 -0 0.669131
    outer loop
      vertex -28.3316 108 14.9428
      vertex -27.842 110 14.399
      vertex -28.3316 110 14.9428
    endloop
  endfacet
  facet normal 0.743144 0 0.669131
    outer loop
      vertex -27.842 110 14.399
      vertex -28.3316 108 14.9428
      vertex -27.842 108 14.399
    endloop
  endfacet
  facet normal 0.951057 -0 0.309016
    outer loop
      vertex -28.9235 108 16.2723
      vertex -28.6974 110 15.5764
      vertex -28.9235 110 16.2723
    endloop
  endfacet
  facet normal 0.951057 0 0.309016
    outer loop
      vertex -28.6974 110 15.5764
      vertex -28.9235 108 16.2723
      vertex -28.6974 108 15.5764
    endloop
  endfacet
  facet normal 0.994522 -0 0.104528
    outer loop
      vertex -29 108 17
      vertex -28.9235 110 16.2723
      vertex -29 110 17
    endloop
  endfacet
  facet normal 0.994522 0 0.104528
    outer loop
      vertex -28.9235 110 16.2723
      vertex -29 108 17
      vertex -28.9235 108 16.2723
    endloop
  endfacet
  facet normal -0.406735 0 0.913546
    outer loop
      vertex -24.4184 110 13.6713
      vertex -23.75 108 13.9689
      vertex -23.75 110 13.9689
    endloop
  endfacet
  facet normal -0.406735 0 0.913546
    outer loop
      vertex -23.75 108 13.9689
      vertex -24.4184 110 13.6713
      vertex -24.4184 108 13.6713
    endloop
  endfacet
  facet normal -0.587786 0 0.809017
    outer loop
      vertex -23.75 110 13.9689
      vertex -23.158 108 14.399
      vertex -23.158 110 14.399
    endloop
  endfacet
  facet normal -0.587786 0 0.809017
    outer loop
      vertex -23.158 108 14.399
      vertex -23.75 110 13.9689
      vertex -23.75 108 13.9689
    endloop
  endfacet
  facet normal -0.743146 0 0.66913
    outer loop
      vertex -23.158 108 14.399
      vertex -22.6684 110 14.9428
      vertex -23.158 110 14.399
    endloop
  endfacet
  facet normal -0.743146 0 0.66913
    outer loop
      vertex -22.6684 110 14.9428
      vertex -23.158 108 14.399
      vertex -22.6684 108 14.9428
    endloop
  endfacet
  facet normal -0.951057 0 0.309016
    outer loop
      vertex -22.3026 108 15.5764
      vertex -22.0765 110 16.2723
      vertex -22.3026 110 15.5764
    endloop
  endfacet
  facet normal -0.951057 0 0.309016
    outer loop
      vertex -22.0765 110 16.2723
      vertex -22.3026 108 15.5764
      vertex -22.0765 108 16.2723
    endloop
  endfacet
  facet normal -0.994522 0 0.10453
    outer loop
      vertex -22.0765 108 16.2723
      vertex -22 110 17
      vertex -22.0765 110 16.2723
    endloop
  endfacet
  facet normal -0.994522 0 0.10453
    outer loop
      vertex -22 110 17
      vertex -22.0765 108 16.2723
      vertex -22 108 17
    endloop
  endfacet
  facet normal 0.406736 0 0.913546
    outer loop
      vertex -27.25 110 13.9689
      vertex -26.5816 108 13.6713
      vertex -26.5816 110 13.6713
    endloop
  endfacet
  facet normal 0.406736 0 0.913546
    outer loop
      vertex -26.5816 108 13.6713
      vertex -27.25 110 13.9689
      vertex -27.25 108 13.9689
    endloop
  endfacet
  facet normal 0.207912 0 0.978147
    outer loop
      vertex -26.5816 110 13.6713
      vertex -25.8659 108 13.5192
      vertex -25.8659 110 13.5192
    endloop
  endfacet
  facet normal 0.207912 0 0.978147
    outer loop
      vertex -25.8659 108 13.5192
      vertex -26.5816 110 13.6713
      vertex -26.5816 108 13.6713
    endloop
  endfacet
  facet normal -0 0 1
    outer loop
      vertex -25.8659 110 13.5192
      vertex -25.1342 108 13.5192
      vertex -25.1342 110 13.5192
    endloop
  endfacet
  facet normal 0 0 1
    outer loop
      vertex -25.1342 108 13.5192
      vertex -25.8659 110 13.5192
      vertex -25.8659 108 13.5192
    endloop
  endfacet
  facet normal 0.866025 -0 0.5
    outer loop
      vertex -28.6974 108 15.5764
      vertex -28.3316 110 14.9428
      vertex -28.6974 110 15.5764
    endloop
  endfacet
  facet normal 0.866025 0 0.5
    outer loop
      vertex -28.3316 110 14.9428
      vertex -28.6974 108 15.5764
      vertex -28.3316 108 14.9428
    endloop
  endfacet
  facet normal 1 -0 0
    outer loop
      vertex -16 0 17
      vertex -16 2 13
      vertex -16 2 17
    endloop
  endfacet
  facet normal 1 0 0
    outer loop
      vertex -16 2 13
      vertex -16 0 17
      vertex -16 0 13
    endloop
  endfacet
  facet normal -1 0 0
    outer loop
      vertex -10 0 13
      vertex -10 2 17
      vertex -10 2 13
    endloop
  endfacet
  facet normal -1 -0 0
    outer loop
      vertex -10 2 17
      vertex -10 0 13
      vertex -10 0 17
    endloop
  endfacet
  facet normal -0 0 1
    outer loop
      vertex -16 2 13
      vertex -10 0 13
      vertex -10 2 13
    endloop
  endfacet
  facet normal 0 0 1
    outer loop
      vertex -10 0 13
      vertex -16 2 13
      vertex -16 0 13
    endloop
  endfacet
endsolid OpenSCAD_Model
